<svg xmlns="http://www.w3.org/2000/svg" viewBox="0 0 48 48" role="img" aria-label="Ethos Talent">
  <defs>
    <linearGradient id="agua" x1="0" y1="0" x2="0" y2="1">
      <stop offset="0" stop-color="#12A0BC"/>
      <stop offset="1" stop-color="#085C6E"/>
    </linearGradient>
    <linearGradient id="gloss" x1="0" y1="0" x2="0" y2="1">
      <stop offset="0" stop-color="#FFFFFF" stop-opacity=".45"/>
      <stop offset="1" stop-color="#FFFFFF" stop-opacity="0"/>
    </linearGradient>
  </defs>
  <rect width="48" height="48" rx="11" fill="url(#agua)"/>
  <!-- Fiel de la balanza: el intercambio justo entre las partes -->
  <path d="M24 9v27" stroke="#A8DE86" stroke-width="2.6" stroke-linecap="round"/>
  <path d="M11 15h26" stroke="#A8DE86" stroke-width="2.6" stroke-linecap="round"/>
  <circle cx="24" cy="9" r="2.6" fill="#A8DE86"/>
  <!-- Platillo izquierdo: el dato -->
  <path d="M6 15l5 9 5-9" fill="none" stroke="#FFFFFF" stroke-width="2.2" stroke-linejoin="round"/>
  <!-- Platillo derecho: la persona -->
  <path d="M32 15l5 9 5-9" fill="none" stroke="#FFFFFF" stroke-width="2.2" stroke-linejoin="round"/>
  <path d="M17 38h14" stroke="#FFFFFF" stroke-width="2.6" stroke-linecap="round"/>
  <!-- Reflejo de gloss -->
  <path d="M0 11a11 11 0 0 1 11-11h26a11 11 0 0 1 11 11v9c-8 5-16 7-24 7S8 25 0 20z" fill="url(#gloss)"/>
</svg>
